# xmcd
#
# Track frame offsets:
#	150
#	12566
#	25881
#	39046
#	51714
#	63594
#	79809
#	92902
#	106885
#	122063
#	135348
#	148712
#	164471
#	177307
#	190527
#	204796
#	219114
#	231874
#	236930
#	251676
#	265262
#	278227
#	290323
#	305524
#	320862
#
# Disc length: 4454 seconds
# Revision: 4
# Processed by: cddbd v1.5.2PL0 Copyright (c) Steve Scherf et al.
# Submitted via: dBpowerAMP V12.0
#
DISCID=6e116419
DTITLE=Various Artist - Essential Delta Blues
DYEAR=2009
DGENRE=Blues
TTITLE0=Big Bill Broonzy - Mississippi River Blues
TTITLE1=Missisippi John Hurt - Ain't No Telling Mississippi
TTITLE2=Bukka White - Special Steam Lines
TTITLE3=Big Joe Williams - I'm Getting Wild About Her
TTITLE4=Robert Johnson - Hellhound On My Trail
TTITLE5=Tommy Johnson - Cool Drink of Water Blues
TTITLE6=Robert Lockwood - Take A Little Walk With Me
TTITLE7=Muddy Waters - I Be's Troubled
TTITLE8=John Lee Hooker - Shady Grove Blues
TTITLE9=Sleepy John Eastes - Hobo Jungle Blues
TTITLE10=Charley Patton - 34 Blues
TTITLE11=Ishman Bracey - Left Alone Blues
TTITLE12=Tommy McClennan - Highway No 51
TTITLE13=Robert Petway - Rockin' Chair Blues
TTITLE14=Son House - My Black Mama (Part 1) (1930)
TTITLE15=Blind Willie Johnson - Nobody's Fault But Mine
TTITLE16=Willie " Poor Boy" Lofton - Dirty Mistreater
TTITLE17=David " Honeyboy" Edwards - Stagolee
TTITLE18=Charley Patton - Moon Going Down
TTITLE19=Skip James - Devil Got My Woman
TTITLE20=Robert Johnson - Preaching Blues (Up Jumped the Devil) (1936)
TTITLE21=Big Joe Williams - Delta Blues
TTITLE22=Arthur "big Boy" Crudup - Black Pony Blues
TTITLE23=Missisippi John Hurt - Frankie
TTITLE24=Bo Carter - My Pencil Won't Write No More
EXTD=
EXTT0=
EXTT1=
EXTT2=
EXTT3=
EXTT4=
EXTT5=
EXTT6=
EXTT7=
EXTT8=
EXTT9=
EXTT10=
EXTT11=
EXTT12=
EXTT13=
EXTT14=
EXTT15=
EXTT16=
EXTT17=
EXTT18=
EXTT19=
EXTT20=
EXTT21=
EXTT22=
EXTT23=
EXTT24=
PLAYORDER=
